<svg width="150" height="28" viewBox="0 0 150 28" fill="none" xmlns="http://www.w3.org/2000/svg">
<path d="M20.1575 10.5408L15.719 0.0565198C15.7045 0.0224222 15.6676 -0.000231757 15.6265 1.78886e-06L11.0109 0.0193861C10.9705 0.0193861 10.9341 0.0415729 10.9197 0.0752034L0.00703079 25.1617C-0.0293481 25.2453 0.0834792 25.3173 0.161246 25.2601L20.128 10.6385C20.1604 10.6149 20.172 10.5756 20.1573 10.5408H20.1575Z" fill="#585858"/>
<path d="M21.8669 14.5786C21.8431 14.5226 21.764 14.5041 21.7121 14.5422L17.7497 17.4552C17.7178 17.4785 17.706 17.5173 17.7202 17.5519L21.6952 27.2356C21.7095 27.2699 21.7464 27.2928 21.7875 27.2928H26.8998C26.9678 27.2928 27.0153 27.233 26.9923 27.1763L21.8671 14.5784L21.8669 14.5786Z" fill="#585858"/>
<path d="M57.2841 3.03469H61.0637V16.9614C61.0637 20.3665 60.0762 22.9543 58.1354 24.759C56.1604 26.5637 53.6747 27.4149 50.6783 27.2787C47.8521 27.2106 45.5026 26.2913 43.6298 24.4866C41.757 22.7159 40.8376 20.1962 40.8376 16.9614V3.03469H44.6173V16.9614C44.6173 19.0725 45.1621 20.741 46.2857 21.8987C47.3754 23.0905 48.8395 23.7034 50.6783 23.7715C52.6192 23.9077 54.2195 23.3629 55.4454 22.1371C56.6712 20.9113 57.2841 19.2087 57.2841 16.9614V3.03469Z" fill="#585858"/>
<path d="M96.7812 26.1551L97.1898 26.8361H92.7292L85.4764 18.5958H80.4369V26.8361H76.6233V2.96659C77.8491 2.96659 79.6878 3.00064 82.1735 3.00064C84.6252 3.00064 86.4979 3.00064 87.7238 3.00064C90.3457 3.00064 92.3887 3.7838 93.8869 5.31608C95.3851 6.84836 96.1343 8.68709 96.1343 10.7982C96.1343 12.7051 95.5894 14.3395 94.5339 15.7015C93.4783 17.0635 91.8439 17.9148 89.6646 18.2213L96.7812 26.1551ZM87.7238 6.4738H80.4369V15.1227H87.6897C89.1879 15.1227 90.3116 14.7141 91.0948 13.8968C91.8439 13.0796 92.2525 12.0922 92.2525 10.8663C92.2525 9.70861 91.8439 8.68709 91.0948 7.80178C90.3116 6.91646 89.1879 6.4738 87.7238 6.4738Z" fill="#585858"/>
<path d="M114.818 26.8361H111.038V3.00064H114.818V26.8361Z" fill="#585858"/>
<path d="M138.827 12.2284L145.093 3.00064H149.281V3.17089L141.211 14.7481L149.621 26.7339V26.8361H145.297L138.827 17.4041L132.324 26.8361H127.999V26.7339L136.376 14.7481L128.34 3.17089V3.00064H132.528L138.827 12.2284Z" fill="#585858"/>
</svg>
